# xmcd
#
# Track frame offsets:
#	150
#	11137
#	26847
#	44872
#	60720
#	77447
#	96967
#	110797
#	127605
#	143100
#	156332
#	173095
#	186455
#	205300
#	222290
#	224055
#	225460
#	227170
#
# Disc length: 3039
#
# Revision: 1
# Processed by: cddbd v1.5.1PL0 Copyright (c) Steve Scherf et al.
# Submitted via: VisiTrax 2.9.5.180 - For more info visit www.synapsa.com
# Normalized: r0:DSETVAR1
#
DISCID=0d0bdd12
DTITLE=Various Artist - CDX 130 March 1996
DYEAR=1996
DGENRE=
TTITLE0=Lisa Brokop - Before he kissed me
TTITLE1=David Lee Murphy - Every time I get around you
TTITLE2=Mark Luna - I'll prob'ly be too old
TTITLE3=Collin Raye - I think about you
TTITLE4=Keith Gattis - Little drops of m heart
TTITLE5=John Michael Montgomery - Long as I live
TTITLE6=John Anderson - Long hard lesson learned
TTITLE7=Linda Davis - Love story in the making
TTITLE8=Paul Brandt - My heart has a history
TTITLE9=Ronna Reeves - My heart wasn't in it
TTITLE10=Sawyer Brown - Treat her right
TTITLE11=Gretchen Peters - When you are old
TTITLE12=Karla Bonoff/Nitty Gritty Dirt Band - You believed in me
TTITLE13=T Cane Honey - Even cowboys get the blues
TTITLE14=Sawyer Brown - PSA
TTITLE15=Sawyer Brown - PSA
TTITLE16=Ricochet - PSA
TTITLE17=Ricochet - PSA
EXTD=
EXTT0=
EXTT1=
EXTT2=
EXTT3=
EXTT4=
EXTT5=
EXTT6=
EXTT7=
EXTT8=
EXTT9=
EXTT10=
EXTT11=
EXTT12=
EXTT13=
EXTT14=
EXTT15=
EXTT16=
EXTT17=
PLAYORDER=
